<?xml version="1.0" standalone="no"?><!DOCTYPE svg PUBLIC "-//W3C//DTD SVG 1.1//EN" "http://www.w3.org/Graphics/SVG/1.1/DTD/svg11.dtd"><svg class="icon" width="200px" height="200.00px" viewBox="0 0 1024 1024" version="1.1" xmlns="http://www.w3.org/2000/svg"><path d="M512 930.133333c-102.4 0-200.533333-38.4-277.333333-110.933333-4.266667-4.266667-8.533333-12.8-8.533334-21.333333s4.266667-17.066667 8.533334-21.333334c76.8-72.533333 174.933333-115.2 277.333333-115.2 102.4 0 200.533333 38.4 277.333333 110.933334 4.266667 4.266667 8.533333 12.8 8.533334 21.333333s-4.266667 17.066667-8.533334 21.333333c-76.8 72.533333-174.933333 115.2-277.333333 115.2z m-209.066667-136.533333c59.733333 46.933333 132.266667 72.533333 204.8 72.533333 76.8 0 149.333333-25.6 209.066667-72.533333-59.733333-46.933333-132.266667-72.533333-204.8-72.533333-76.8 0-149.333333 25.6-209.066667 72.533333zM170.666667 716.8c-12.8 0-21.333333-8.533333-29.866667-17.066667-29.866667-59.733333-42.666667-123.733333-42.666667-187.733333 0-230.4 187.733333-418.133333 418.133334-418.133333s418.133333 187.733333 418.133333 418.133333c0 64-17.066667 128-46.933333 187.733333-8.533333 17.066667-25.6 21.333333-42.666667 12.8s-21.333333-25.6-12.8-42.666666c25.6-51.2 38.4-102.4 38.4-157.866667 0-192-157.866667-354.133333-354.133333-354.133333S162.133333 320 162.133333 512c0 55.466667 12.8 106.666667 38.4 157.866667 8.533333 17.066667 0 34.133333-12.8 42.666666-8.533333 4.266667-12.8 4.266667-17.066666 4.266667zM512 588.8c-42.666667 0-81.066667-17.066667-115.2-46.933333-64-64-64-162.133333 0-226.133334 59.733333-59.733333 166.4-59.733333 226.133333 0 29.866667 29.866667 46.933333 68.266667 46.933334 115.2s-17.066667 81.066667-46.933334 115.2-68.266667 42.666667-110.933333 42.666667z m0-256c-25.6 0-51.2 8.533333-68.266667 29.866667-38.4 38.4-38.4 98.133333 0 136.533333 38.4 38.4 98.133333 38.4 136.533334 0 17.066667-17.066667 29.866667-42.666667 29.866666-68.266667s-12.8-55.466667-29.866666-72.533333c-17.066667-17.066667-42.666667-25.6-68.266667-25.6z" /></svg>
