<?xml version="1.0" standalone="no"?><!DOCTYPE svg PUBLIC "-//W3C//DTD SVG 1.1//EN" "http://www.w3.org/Graphics/SVG/1.1/DTD/svg11.dtd"><svg class="icon" width="200px" height="200.00px" viewBox="0 0 1024 1024" version="1.1" xmlns="http://www.w3.org/2000/svg"><path d="M768 716.8c-17.066667 0-34.133333-12.8-34.133333-34.133333v-42.666667c0-17.066667 12.8-34.133333 34.133333-34.133333s34.133333 12.8 34.133333 34.133333v42.666667c0 17.066667-17.066667 34.133333-34.133333 34.133333zM768 930.133333c-17.066667 0-34.133333-12.8-34.133333-34.133333v-42.666667c0-17.066667 12.8-34.133333 34.133333-34.133333s34.133333 12.8 34.133333 34.133333v42.666667c0 17.066667-17.066667 34.133333-34.133333 34.133333zM695.466667 759.466667c-4.266667 0-12.8 0-17.066667-4.266667l-38.4-25.6c-17.066667-8.533333-21.333333-29.866667-12.8-42.666667 8.533333-17.066667 29.866667-21.333333 42.666667-12.8l38.4 21.333334c17.066667 8.533333 21.333333 29.866667 12.8 42.666666-4.266667 12.8-17.066667 21.333333-25.6 21.333334zM878.933333 866.133333c-4.266667 0-12.8 0-17.066666-4.266666l-38.4-21.333334c-17.066667-8.533333-21.333333-29.866667-12.8-42.666666 8.533333-17.066667 29.866667-21.333333 42.666666-12.8l38.4 21.333333c17.066667 8.533333 21.333333 29.866667 12.8 42.666667-4.266667 8.533333-12.8 17.066667-25.6 17.066666zM657.066667 866.133333c-12.8 0-21.333333-4.266667-25.6-17.066666-8.533333-17.066667-4.266667-34.133333 12.8-42.666667l38.4-21.333333c17.066667-8.533333 34.133333-4.266667 42.666666 12.8 8.533333 17.066667 4.266667 34.133333-12.8 42.666666l-38.4 21.333334c-4.266667 0-12.8 4.266667-17.066666 4.266666zM840.533333 759.466667c-12.8 0-21.333333-4.266667-25.6-17.066667-8.533333-17.066667-4.266667-34.133333 12.8-42.666667l38.4-21.333333c17.066667-8.533333 34.133333-4.266667 42.666667 12.8 8.533333 17.066667 4.266667 34.133333-12.8 42.666667l-38.4 21.333333c-4.266667 0-8.533333 4.266667-17.066667 4.266667zM768 883.2c-29.866667 0-59.733333-12.8-81.066667-34.133333-46.933333-46.933333-46.933333-119.466667 0-166.4s119.466667-46.933333 166.4 0 46.933333 119.466667 0 166.4c-25.6 25.6-55.466667 34.133333-85.333333 34.133333z m0-166.4c-12.8 0-25.6 4.266667-38.4 17.066667-21.333333 21.333333-21.333333 55.466667 0 76.8s55.466667 21.333333 76.8 0 21.333333-55.466667 0-76.8c-12.8-12.8-25.6-17.066667-38.4-17.066667zM512 567.466667c-55.466667 0-110.933333-21.333333-149.333333-64-81.066667-81.066667-81.066667-217.6 0-302.933334 38.4-38.4 93.866667-64 149.333333-64s110.933333 21.333333 149.333333 64c42.666667 42.666667 64 93.866667 64 153.6 0 55.466667-21.333333 110.933333-64 149.333334s-93.866667 64-149.333333 64z m0-362.666667c-38.4 0-76.8 17.066667-106.666667 42.666667-59.733333 59.733333-59.733333 153.6 0 213.333333 55.466667 55.466667 153.6 55.466667 209.066667 0 29.866667-29.866667 42.666667-64 42.666667-106.666667s-17.066667-76.8-42.666667-106.666666-64-42.666667-102.4-42.666667zM170.666667 887.466667c-17.066667 0-34.133333-12.8-34.133334-34.133334 0-123.733333 102.4-226.133333 226.133334-226.133333h110.933333c17.066667 0 34.133333 12.8 34.133333 34.133333s-12.8 34.133333-34.133333 34.133334H362.666667c-89.6 0-162.133333 72.533333-162.133334 162.133333 4.266667 12.8-12.8 29.866667-29.866666 29.866667z" /></svg>
