<?xml version="1.0" standalone="no"?><!DOCTYPE svg PUBLIC "-//W3C//DTD SVG 1.1//EN" "http://www.w3.org/Graphics/SVG/1.1/DTD/svg11.dtd"><svg class="icon" width="200px" height="200.00px" viewBox="0 0 1024 1024" version="1.1" xmlns="http://www.w3.org/2000/svg"><path d="M324.266667 558.933333c-17.066667 0-34.133333-12.8-34.133334-34.133333v-42.666667c0-17.066667 12.8-34.133333 34.133334-34.133333s34.133333 12.8 34.133333 34.133333v42.666667c0 17.066667-17.066667 34.133333-34.133333 34.133333zM580.266667 558.933333c-17.066667 0-34.133333-12.8-34.133334-34.133333v-42.666667c0-17.066667 12.8-34.133333 34.133334-34.133333s34.133333 12.8 34.133333 34.133333v42.666667c0 17.066667-17.066667 34.133333-34.133333 34.133333zM439.466667 644.266667H426.666667c-17.066667 0-34.133333-12.8-34.133334-34.133334s12.8-34.133333 34.133334-34.133333h12.8v-93.866667c0-17.066667 12.8-34.133333 34.133333-34.133333s34.133333 12.8 34.133333 34.133333v98.133334c-8.533333 34.133333-38.4 64-68.266666 64zM452.266667 763.733333c-42.666667 0-85.333333-17.066667-115.2-46.933333-12.8-12.8-12.8-34.133333 0-46.933333 12.8-12.8 34.133333-12.8 46.933333 0 38.4 38.4 102.4 38.4 140.8 0 12.8-12.8 34.133333-12.8 46.933333 0s12.8 34.133333 0 46.933333c-34.133333 34.133333-76.8 46.933333-119.466666 46.933333zM635.733333 972.8H268.8c-68.266667 0-123.733333-51.2-123.733333-115.2V277.333333c0-64 55.466667-115.2 123.733333-115.2H640c68.266667 0 123.733333 51.2 123.733333 115.2V853.333333c0 68.266667-59.733333 119.466667-128 119.466667zM268.8 226.133333c-34.133333 0-59.733333 25.6-59.733333 51.2V853.333333c0 29.866667 25.6 51.2 59.733333 51.2H640c34.133333 0 59.733333-21.333333 59.733333-51.2V277.333333c0-29.866667-25.6-51.2-59.733333-51.2H268.8zM755.2 861.866667c-17.066667 0-34.133333-12.8-34.133333-34.133334s12.8-34.133333 34.133333-34.133333c34.133333 0 59.733333-21.333333 59.733333-51.2V166.4c0-29.866667-25.6-51.2-59.733333-51.2H384c-34.133333 0-59.733333 25.6-59.733333 51.2 0 17.066667-12.8 34.133333-29.866667 34.133333s-34.133333-17.066667-34.133333-34.133333c0-64 55.466667-115.2 123.733333-115.2h371.2c68.266667 0 123.733333 51.2 123.733333 115.2v576c0 68.266667-55.466667 119.466667-123.733333 119.466667z" /></svg>
